<?xml version="1.0" standalone="no"?>
<!DOCTYPE svg PUBLIC "-//W3C//DTD SVG 20010904//EN"
 "http://www.w3.org/TR/2001/REC-SVG-20010904/DTD/svg10.dtd">
<svg version="1.0" xmlns="http://www.w3.org/2000/svg"
 width="619.000000pt" height="619.000000pt" viewBox="0 0 619.000000 619.000000"
 preserveAspectRatio="xMidYMid meet">
<metadata>
Created by potrace 1.11, written by Peter Selinger 2001-2013
</metadata>
<g transform="translate(0.000000,619.000000) scale(0.100000,-0.100000)"
fill="#000000" stroke="none">
<path d="M2810 6159 c-319 -30 -662 -119 -959 -250 -1112 -492 -1831 -1594
-1831 -2809 0 -1215 719 -2317 1831 -2809 788 -348 1690 -348 2478 0 1112 492
1831 1594 1831 2809 0 1701 -1391 3082 -3090 3069 -91 -1 -208 -6 -260 -10z
m630 -694 c538 -84 1002 -322 1375 -706 364 -374 579 -810 662 -1339 13 -85
18 -173 18 -340 0 -167 -5 -255 -18 -340 -83 -529 -298 -965 -662 -1339 -375
-386 -836 -622 -1385 -708 -161 -25 -519 -25 -680 0 -549 86 -1010 322 -1385
708 -364 374 -579 810 -662 1339 -25 161 -25 519 0 680 83 529 298 965 662
1339 338 348 767 584 1235 680 83 17 135 25 300 45 78 9 440 -4 540 -19z"/>
<path d="M2877 4619 c-342 -39 -658 -187 -901 -419 -252 -242 -400 -511 -468
-852 -32 -161 -32 -415 0 -576 68 -341 216 -610 468 -852 466 -447 1175 -556
1759 -270 144 70 275 161 389 270 252 242 400 511 468 852 32 161 32 415 0
576 -68 341 -216 610 -468 852 -328 314 -797 472 -1247 419z"/>
</g>
</svg>
